name rise35.5848peak51.9257fall54.8793.mot
datacolumns 19
datarows 54
range 0.000000 0.088333
endheader
time	ground_force1_vx	ground_force1_vy	ground_force1_vz	ground_force1_px	ground_force1_py	ground_force1_pz	ground_force2_vx	ground_force2_vy	ground_force2_vz	ground_force2_px	ground_force2_py	ground_force2_pz	ground_torque1_x	ground_torque1_y	ground_torque1_z	ground_torque2_x	ground_torque2_y	ground_torque2_z	
0.000000	-60.933167	730.245716	51.606776	0.102372	0.000000	0.117357	10.029401	203.826877	30.293146	0.377151	0.000000	-0.062840	0.000000	27.273526	0.000000	0.000000	29.749686	0.000000	
0.001662	-60.938309	728.737399	51.167093	0.102403	0.000000	0.117491	10.210485	205.485018	29.573651	0.378065	0.000000	-0.062320	0.000000	27.107463	0.000000	0.000000	29.130578	0.000000	
0.003330	-60.944099	727.241956	50.730918	0.102422	0.000000	0.117624	10.390267	207.129042	28.860263	0.379000	0.000000	-0.061801	0.000000	26.942355	0.000000	0.000000	28.516027	0.000000	
0.005000	-60.953302	725.733186	50.294179	0.102427	0.000000	0.117755	10.572677	208.777400	28.149678	0.379952	0.000000	-0.061283	0.000000	26.778235	0.000000	0.000000	27.903652	0.000000	
0.006667	-60.968703	724.182157	49.852175	0.102419	0.000000	0.117885	10.761968	210.451146	27.437640	0.380915	0.000000	-0.060769	0.000000	26.614913	0.000000	0.000000	27.290231	0.000000	
0.008329	-60.992956	722.558961	49.399939	0.102396	0.000000	0.118013	10.962466	212.172473	26.719369	0.381886	0.000000	-0.060260	0.000000	26.452038	0.000000	0.000000	26.672051	0.000000	
0.009994	-61.028459	720.834296	48.932568	0.102357	0.000000	0.118139	11.178343	213.963362	25.989973	0.382861	0.000000	-0.059758	0.000000	26.289160	0.000000	0.000000	26.045246	0.000000	
0.011675	-61.077257	718.980793	48.445509	0.102303	0.000000	0.118262	11.413425	215.844433	25.244805	0.383833	0.000000	-0.059264	0.000000	26.125787	0.000000	0.000000	25.406101	0.000000	
0.013325	-61.140969	716.974024	47.934784	0.102233	0.000000	0.118382	11.671054	217.834061	24.479746	0.384799	0.000000	-0.058780	0.000000	25.961435	0.000000	0.000000	24.751295	0.000000	
0.014996	-61.220749	714.793163	47.397135	0.102145	0.000000	0.118499	11.953997	219.947766	23.691415	0.385753	0.000000	-0.058307	0.000000	25.795668	0.000000	0.000000	24.078090	0.000000	
0.016661	-61.317282	712.421312	46.830114	0.102040	0.000000	0.118613	12.264403	222.197898	22.877295	0.386690	0.000000	-0.057847	0.000000	25.628124	0.000000	0.000000	23.384448	0.000000	
0.018333	-61.430795	709.845529	46.232099	0.101917	0.000000	0.118723	12.603807	224.593566	22.035777	0.387606	0.000000	-0.057401	0.000000	25.458536	0.000000	0.000000	22.669079	0.000000	
0.019994	-61.561096	707.056594	45.602255	0.101775	0.000000	0.118829	12.973163	227.140797	21.166139	0.388496	0.000000	-0.056971	0.000000	25.286730	0.000000	0.000000	21.931444	0.000000	
0.021661	-61.707621	704.048592	44.940463	0.101614	0.000000	0.118931	13.372915	229.842852	20.268476	0.389355	0.000000	-0.056557	0.000000	25.112632	0.000000	0.000000	21.171701	0.000000	
0.023326	-61.869495	700.818371	44.247208	0.101433	0.000000	0.119028	13.803073	232.700668	19.343581	0.390180	0.000000	-0.056161	0.000000	24.936248	0.000000	0.000000	20.390617	0.000000	
0.024999	-62.045591	697.364933	43.523460	0.101232	0.000000	0.119121	14.263307	235.713356	18.392810	0.390964	0.000000	-0.055784	0.000000	24.757655	0.000000	0.000000	19.589463	0.000000	
0.026675	-62.234587	693.688818	42.770542	0.101010	0.000000	0.119209	14.753037	238.878712	17.417934	0.391706	0.000000	-0.055425	0.000000	24.576982	0.000000	0.000000	18.769891	0.000000	
0.028331	-62.435023	689.791537	41.990011	0.100767	0.000000	0.119291	15.271518	242.193709	16.420994	0.392400	0.000000	-0.055087	0.000000	24.394385	0.000000	0.000000	17.933815	0.000000	
0.029997	-62.645343	685.675064	41.183551	0.100502	0.000000	0.119368	15.817911	245.654930	15.404167	0.393043	0.000000	-0.054768	0.000000	24.210036	0.000000	0.000000	17.083300	0.000000	
0.031663	-62.863931	681.341443	40.352878	0.100216	0.000000	0.119440	16.391346	249.258921	14.369658	0.393633	0.000000	-0.054471	0.000000	24.024099	0.000000	0.000000	16.220460	0.000000	
0.033328	-63.089137	676.792487	39.499674	0.099907	0.000000	0.119505	16.990961	253.002464	13.319604	0.394166	0.000000	-0.054195	0.000000	23.836720	0.000000	0.000000	15.347381	0.000000	
0.034994	-63.319294	672.029595	38.625536	0.099575	0.000000	0.119565	17.615930	256.882759	12.256015	0.394640	0.000000	-0.053940	0.000000	23.648016	0.000000	0.000000	14.466065	0.000000	
0.036663	-63.552721	667.053672	37.731956	0.099220	0.000000	0.119618	18.265479	260.897511	11.180734	0.395053	0.000000	-0.053707	0.000000	23.458064	0.000000	0.000000	13.578383	0.000000	
0.038329	-63.787727	661.865128	36.820304	0.098841	0.000000	0.119666	18.938882	265.044960	10.095416	0.395403	0.000000	-0.053495	0.000000	23.266900	0.000000	0.000000	12.686064	0.000000	
0.039995	-64.022607	656.463956	35.891844	0.098439	0.000000	0.119706	19.635456	269.323831	9.001536	0.395689	0.000000	-0.053304	0.000000	23.074515	0.000000	0.000000	11.790682	0.000000	
0.041659	-64.255629	650.849856	34.947742	0.098012	0.000000	0.119740	20.354541	273.733257	7.900398	0.395909	0.000000	-0.053134	0.000000	22.880860	0.000000	0.000000	10.893672	0.000000	
0.043328	-64.485030	645.022390	33.989102	0.097561	0.000000	0.119767	21.095480	278.272655	6.793169	0.396063	0.000000	-0.052984	0.000000	22.685845	0.000000	0.000000	9.996343	0.000000	
0.044993	-64.708999	638.981148	33.016986	0.097085	0.000000	0.119788	21.857599	282.941603	5.680904	0.396150	0.000000	-0.052854	0.000000	22.489346	0.000000	0.000000	9.099903	0.000000	
0.046665	-64.925676	632.725916	32.032452	0.096584	0.000000	0.119801	22.640180	287.739709	4.564588	0.396170	0.000000	-0.052744	0.000000	22.291211	0.000000	0.000000	8.205482	0.000000	
0.048331	-65.133138	626.256820	31.036573	0.096057	0.000000	0.119807	23.442451	292.666483	3.445159	0.396124	0.000000	-0.052653	0.000000	22.091260	0.000000	0.000000	7.314158	0.000000	
0.049996	-65.329403	619.574452	30.030469	0.095505	0.000000	0.119806	24.263562	297.721244	2.323546	0.396012	0.000000	-0.052580	0.000000	21.889299	0.000000	0.000000	6.426979	0.000000	
0.051658	-65.512424	612.679963	29.015318	0.094927	0.000000	0.119798	25.102577	302.903030	1.200685	0.395835	0.000000	-0.052525	0.000000	21.685117	0.000000	0.000000	5.544977	0.000000	
0.053332	-65.680095	605.575124	27.992372	0.094324	0.000000	0.119782	25.958472	308.210544	0.077539	0.395593	0.000000	-0.052487	0.000000	21.478497	0.000000	0.000000	4.669186	0.000000	
0.054996	-65.830259	598.262360	26.962963	0.093693	0.000000	0.119759	26.830126	313.642121	-1.044894	0.395289	0.000000	-0.052464	0.000000	21.269213	0.000000	0.000000	3.800638	0.000000	
0.056660	-65.960713	590.744750	25.928501	0.093037	0.000000	0.119729	27.716328	319.195720	-2.165577	0.394923	0.000000	-0.052457	0.000000	21.057040	0.000000	0.000000	2.940376	0.000000	
0.058334	-66.069224	583.026008	24.890470	0.092354	0.000000	0.119691	28.615784	324.868931	-3.283435	0.394498	0.000000	-0.052464	0.000000	20.841750	0.000000	0.000000	2.089443	0.000000	
0.059997	-66.153543	575.110451	23.850424	0.091644	0.000000	0.119645	29.527122	330.659001	-4.397367	0.394014	0.000000	-0.052485	0.000000	20.623119	0.000000	0.000000	1.248875	0.000000	
0.061663	-66.211418	567.002953	22.809969	0.090908	0.000000	0.119592	30.448904	336.562870	-5.506250	0.393475	0.000000	-0.052518	0.000000	20.400923	0.000000	0.000000	0.419695	0.000000	
0.063324	-66.240612	558.708895	21.770751	0.090144	0.000000	0.119532	31.379640	342.577213	-6.608956	0.392882	0.000000	-0.052563	0.000000	20.174945	0.000000	0.000000	-0.397099	0.000000	
0.064993	-66.238919	550.234119	20.734445	0.089354	0.000000	0.119464	32.317797	348.698483	-7.704364	0.392238	0.000000	-0.052619	0.000000	19.944970	0.000000	0.000000	-1.200548	0.000000	
0.066665	-66.204179	541.584890	19.702738	0.088536	0.000000	0.119388	33.261812	354.922960	-8.791372	0.391545	0.000000	-0.052685	0.000000	19.710790	0.000000	0.000000	-1.989743	0.000000	
0.068328	-66.134298	532.767860	18.677311	0.087691	0.000000	0.119305	34.210104	361.246785	-9.868912	0.390805	0.000000	-0.052760	0.000000	19.472202	0.000000	0.000000	-2.763833	0.000000	
0.069993	-66.027255	523.790054	17.659832	0.086819	0.000000	0.119215	35.161081	367.666002	-10.935957	0.390021	0.000000	-0.052843	0.000000	19.229009	0.000000	0.000000	-3.522036	0.000000	
0.071658	-65.881125	514.658860	16.651939	0.085920	0.000000	0.119116	36.113156	374.176580	-11.991536	0.389196	0.000000	-0.052934	0.000000	18.981022	0.000000	0.000000	-4.263644	0.000000	
0.073331	-65.694080	505.382027	15.655231	0.084993	0.000000	0.119011	37.064746	380.774439	-13.034733	0.388332	0.000000	-0.053032	0.000000	18.728060	0.000000	0.000000	-4.988030	0.000000	
0.074997	-65.464408	495.967679	14.671259	0.084040	0.000000	0.118897	38.014285	387.455465	-14.064698	0.387431	0.000000	-0.053135	0.000000	18.469949	0.000000	0.000000	-5.694650	0.000000	
0.076658	-65.190515	486.424321	13.701518	0.083059	0.000000	0.118777	38.960225	394.215516	-15.080645	0.386497	0.000000	-0.053244	0.000000	18.206525	0.000000	0.000000	-6.383041	0.000000	
0.078333	-64.870933	476.760853	12.747441	0.082051	0.000000	0.118649	39.901046	401.050430	-16.081858	0.385532	0.000000	-0.053356	0.000000	17.937635	0.000000	0.000000	-7.052826	0.000000	
0.079995	-64.504326	466.986570	11.810396	0.081016	0.000000	0.118513	40.835254	407.956021	-17.067685	0.384538	0.000000	-0.053473	0.000000	17.663135	0.000000	0.000000	-7.703707	0.000000	
0.081665	-64.089490	457.111156	10.891684	0.079955	0.000000	0.118370	41.761388	414.928080	-18.037539	0.383519	0.000000	-0.053593	0.000000	17.382892	0.000000	0.000000	-8.335462	0.000000	
0.083331	-63.625356	447.144653	9.992537	0.078867	0.000000	0.118220	42.678022	421.962366	-18.990897	0.382476	0.000000	-0.053715	0.000000	17.096786	0.000000	0.000000	-8.947944	0.000000	
0.084997	-63.110991	437.097415	9.114118	0.077752	0.000000	0.118062	43.583765	429.054607	-19.927295	0.381413	0.000000	-0.053838	0.000000	16.804708	0.000000	0.000000	-9.541074	0.000000	
0.086662	-62.545595	426.980042	8.257527	0.076612	0.000000	0.117897	44.477270	436.200490	-20.846325	0.380331	0.000000	-0.053963	0.000000	16.506566	0.000000	0.000000	-10.114839	0.000000	
0.088333	-61.928509	416.803282	7.423800	0.075445	0.000000	0.117725	45.357230	443.395663	-21.747633	0.379234	0.000000	-0.054089	0.000000	16.202280	0.000000	0.000000	-10.669282	0.000000	
